{
	"asset":{
		"generator":"Khronos glTF Blender I/O v3.6.28",
		"version":"2.0"
	},
	"extensionsUsed":[
		"KHR_materials_specular",
		"KHR_materials_ior"
	],
	"scene":0,
	"scenes":[
		{
			"name":"Scene",
			"nodes":[
				0
			]
		}
	],
	"nodes":[
		{
			"mesh":0,
			"name":"skin_1",
			"rotation":[
				0.7071068286895752,
				0,
				0,
				0.7071068286895752
			]
		}
	],
	"materials":[
		{
			"doubleSided":true,
			"extensions":{
				"KHR_materials_specular":{
					"specularColorFactor":[
						0.6416615045689265,
						0.6416615045689265,
						0.6416615045689265
					]
				},
				"KHR_materials_ior":{
					"ior":1.4500000476837158
				}
			},
			"name":"fushigidane1:fushigidane_m02_mat1147",
			"pbrMetallicRoughness":{
				"baseColorTexture":{
					"index":0
				},
				"metallicFactor":0,
				"roughnessFactor":0.7763931751251221
			}
		},
		{
			"doubleSided":true,
			"extensions":{
				"KHR_materials_specular":{
					"specularColorFactor":[
						0.6416615045689265,
						0.6416615045689265,
						0.6416615045689265
					]
				},
				"KHR_materials_ior":{
					"ior":1.4500000476837158
				}
			},
			"name":"fushigidane1:fushigidane_m02_fushigidane_m01_mat1143",
			"pbrMetallicRoughness":{
				"baseColorTexture":{
					"index":1
				},
				"metallicFactor":0,
				"roughnessFactor":0.7763931751251221
			}
		}
	],
	"meshes":[
		{
			"name":"skin_1",
			"primitives":[
				{
					"attributes":{
						"POSITION":0,
						"NORMAL":1,
						"TEXCOORD_0":2
					},
					"indices":3,
					"material":0
				},
				{
					"attributes":{
						"POSITION":4,
						"NORMAL":5,
						"TEXCOORD_0":6
					},
					"indices":7,
					"material":1
				}
			]
		}
	],
	"textures":[
		{
			"sampler":0,
			"source":0
		},
		{
			"sampler":0,
			"source":1
		}
	],
	"images":[
		{
			"bufferView":4,
			"mimeType":"image/png",
			"name":"Texture_1_CMP"
		},
		{
			"bufferView":9,
			"mimeType":"image/png",
			"name":"Texture_0_RGB565"
		}
	],
	"accessors":[
		{
			"bufferView":0,
			"componentType":5126,
			"count":932,
			"max":[
				2.0575032234191895,
				3.050490379333496,
				0.03867699205875397
			],
			"min":[
				-2.046949863433838,
				-2.254753589630127,
				-4.415702819824219
			],
			"type":"VEC3"
		},
		{
			"bufferView":1,
			"componentType":5126,
			"count":932,
			"type":"VEC3"
		},
		{
			"bufferView":2,
			"componentType":5126,
			"count":932,
			"type":"VEC2"
		},
		{
			"bufferView":3,
			"componentType":5123,
			"count":1920,
			"type":"SCALAR"
		},
		{
			"bufferView":5,
			"componentType":5126,
			"count":24,
			"max":[
				1.3456125259399414,
				2.880612373352051,
				-1.4703251123428345
			],
			"min":[
				-1.3456125259399414,
				1.9117997884750366,
				-2.6787424087524414
			],
			"type":"VEC3"
		},
		{
			"bufferView":6,
			"componentType":5126,
			"count":24,
			"type":"VEC3"
		},
		{
			"bufferView":7,
			"componentType":5126,
			"count":24,
			"type":"VEC2"
		},
		{
			"bufferView":8,
			"componentType":5123,
			"count":36,
			"type":"SCALAR"
		}
	],
	"bufferViews":[
		{
			"buffer":0,
			"byteLength":11184,
			"byteOffset":0,
			"target":34962
		},
		{
			"buffer":0,
			"byteLength":11184,
			"byteOffset":11184,
			"target":34962
		},
		{
			"buffer":0,
			"byteLength":7456,
			"byteOffset":22368,
			"target":34962
		},
		{
			"buffer":0,
			"byteLength":3840,
			"byteOffset":29824,
			"target":34963
		},
		{
			"buffer":0,
			"byteLength":83019,
			"byteOffset":33664
		},
		{
			"buffer":0,
			"byteLength":288,
			"byteOffset":116684,
			"target":34962
		},
		{
			"buffer":0,
			"byteLength":288,
			"byteOffset":116972,
			"target":34962
		},
		{
			"buffer":0,
			"byteLength":192,
			"byteOffset":117260,
			"target":34962
		},
		{
			"buffer":0,
			"byteLength":72,
			"byteOffset":117452,
			"target":34963
		},
		{
			"buffer":0,
			"byteLength":11459,
			"byteOffset":117524
		}
	],
	"samplers":[
		{
			"magFilter":9729,
			"minFilter":9987
		}
	],
	"buffers":[
		{
			"byteLength":128984,
			"uri":"data:application/octet-stream;base64,"
		}
	]
}
