{
	"asset":{
		"generator":"Khronos glTF Blender I/O v3.6.28",
		"version":"2.0"
	},
	"extensionsUsed":[
		"KHR_materials_specular",
		"KHR_materials_ior"
	],
	"scene":0,
	"scenes":[
		{
			"name":"Scene",
			"nodes":[
				0
			]
		}
	],
	"nodes":[
		{
			"mesh":0,
			"name":"skin2800_0"
		}
	],
	"materials":[
		{
			"doubleSided":true,
			"extensions":{
				"KHR_materials_specular":{
					"specularColorFactor":[
						0.6416615045689265,
						0.6416615045689265,
						0.6416615045689265
					]
				},
				"KHR_materials_ior":{
					"ior":1.4500000476837158
				}
			},
			"name":"pika_body",
			"pbrMetallicRoughness":{
				"baseColorTexture":{
					"index":0
				},
				"metallicFactor":0,
				"roughnessFactor":0.8585786819458008
			}
		},
		{
			"doubleSided":true,
			"extensions":{
				"KHR_materials_specular":{
					"specularColorFactor":[
						0.6416615045689265,
						0.6416615045689265,
						0.6416615045689265
					]
				},
				"KHR_materials_ior":{
					"ior":1.4500000476837158
				}
			},
			"name":"pika_eye",
			"pbrMetallicRoughness":{
				"baseColorTexture":{
					"index":1
				},
				"metallicFactor":0,
				"roughnessFactor":0.8585786819458008
			}
		},
		{
			"doubleSided":true,
			"extensions":{
				"KHR_materials_specular":{
					"specularColorFactor":[
						0.6416615045689265,
						0.6416615045689265,
						0.6416615045689265
					]
				},
				"KHR_materials_ior":{
					"ior":1.4500000476837158
				}
			},
			"name":"pika_kuti",
			"pbrMetallicRoughness":{
				"baseColorTexture":{
					"index":2
				},
				"metallicFactor":0,
				"roughnessFactor":0.8585786819458008
			}
		},
		{
			"doubleSided":true,
			"extensions":{
				"KHR_materials_specular":{
					"specularColorFactor":[
						0.6416615045689265,
						0.6416615045689265,
						0.6416615045689265
					]
				},
				"KHR_materials_ior":{
					"ior":1.4500000476837158
				}
			},
			"name":"pika_hoho",
			"pbrMetallicRoughness":{
				"baseColorTexture":{
					"index":3
				},
				"metallicFactor":0,
				"roughnessFactor":0.8585786819458008
			}
		},
		{
			"doubleSided":true,
			"extensions":{
				"KHR_materials_specular":{
					"specularColorFactor":[
						0.6416615045689265,
						0.6416615045689265,
						0.6416615045689265
					]
				},
				"KHR_materials_ior":{
					"ior":1.4500000476837158
				}
			},
			"name":"pika_body0",
			"pbrMetallicRoughness":{
				"baseColorTexture":{
					"index":4
				},
				"metallicFactor":0,
				"roughnessFactor":0.8585786819458008
			}
		}
	],
	"meshes":[
		{
			"name":"skin2800_0",
			"primitives":[
				{
					"attributes":{
						"POSITION":0,
						"NORMAL":1,
						"TEXCOORD_0":2
					},
					"indices":3,
					"material":0
				},
				{
					"attributes":{
						"POSITION":4,
						"NORMAL":5,
						"TEXCOORD_0":6
					},
					"indices":7,
					"material":1
				},
				{
					"attributes":{
						"POSITION":8,
						"NORMAL":9,
						"TEXCOORD_0":10
					},
					"indices":11,
					"material":2
				},
				{
					"attributes":{
						"POSITION":12,
						"NORMAL":13,
						"TEXCOORD_0":14
					},
					"indices":15,
					"material":3
				},
				{
					"attributes":{
						"POSITION":16,
						"NORMAL":17,
						"TEXCOORD_0":18
					},
					"indices":19,
					"material":4
				}
			]
		}
	],
	"textures":[
		{
			"sampler":0,
			"source":0
		},
		{
			"sampler":0,
			"source":1
		},
		{
			"sampler":0,
			"source":2
		},
		{
			"sampler":0,
			"source":3
		},
		{
			"sampler":0,
			"source":0
		}
	],
	"images":[
		{
			"bufferView":4,
			"mimeType":"image/png",
			"name":"Texture_1_CMP"
		},
		{
			"bufferView":9,
			"mimeType":"image/png",
			"name":"Texture_2_CMP"
		},
		{
			"bufferView":14,
			"mimeType":"image/png",
			"name":"Texture_3_CMP"
		},
		{
			"bufferView":19,
			"mimeType":"image/png",
			"name":"Texture_4_CMP"
		}
	],
	"accessors":[
		{
			"bufferView":0,
			"componentType":5126,
			"count":3419,
			"max":[
				1.6760050058364868,
				4.426980018615723,
				1.3763858079910278
			],
			"min":[
				-1.6760029792785645,
				-5.400372901931405e-05,
				-1.5721701383590698
			],
			"type":"VEC3"
		},
		{
			"bufferView":1,
			"componentType":5126,
			"count":3419,
			"type":"VEC3"
		},
		{
			"bufferView":2,
			"componentType":5126,
			"count":3419,
			"type":"VEC2"
		},
		{
			"bufferView":3,
			"componentType":5123,
			"count":7458,
			"type":"SCALAR"
		},
		{
			"bufferView":5,
			"componentType":5126,
			"count":41,
			"max":[
				0.7738335132598877,
				3.124181032180786,
				1.2764817476272583
			],
			"min":[
				-0.7738556861877441,
				2.6481480598449707,
				0.907413899898529
			],
			"type":"VEC3"
		},
		{
			"bufferView":6,
			"componentType":5126,
			"count":41,
			"type":"VEC3"
		},
		{
			"bufferView":7,
			"componentType":5126,
			"count":41,
			"type":"VEC2"
		},
		{
			"bufferView":8,
			"componentType":5123,
			"count":108,
			"type":"SCALAR"
		},
		{
			"bufferView":10,
			"componentType":5126,
			"count":55,
			"max":[
				0.3448947072029114,
				2.7821619510650635,
				1.4020947217941284
			],
			"min":[
				-0.34489360451698303,
				2.1829349994659424,
				1.1727138757705688
			],
			"type":"VEC3"
		},
		{
			"bufferView":11,
			"componentType":5126,
			"count":55,
			"type":"VEC3"
		},
		{
			"bufferView":12,
			"componentType":5126,
			"count":55,
			"type":"VEC2"
		},
		{
			"bufferView":13,
			"componentType":5123,
			"count":144,
			"type":"SCALAR"
		},
		{
			"bufferView":15,
			"componentType":5126,
			"count":42,
			"max":[
				0.9440944790840149,
				2.788991928100586,
				1.0884157419204712
			],
			"min":[
				-0.9438489675521851,
				2.2260611057281494,
				0.6491262912750244
			],
			"type":"VEC3"
		},
		{
			"bufferView":16,
			"componentType":5126,
			"count":42,
			"type":"VEC3"
		},
		{
			"bufferView":17,
			"componentType":5126,
			"count":42,
			"type":"VEC2"
		},
		{
			"bufferView":18,
			"componentType":5123,
			"count":96,
			"type":"SCALAR"
		},
		{
			"bufferView":20,
			"componentType":5126,
			"count":92,
			"max":[
				0.04999890923500061,
				4.344683647155762,
				-1.2104171514511108
			],
			"min":[
				-0.050001110881567,
				0.5700508952140808,
				-3.9133453369140625
			],
			"type":"VEC3"
		},
		{
			"bufferView":21,
			"componentType":5126,
			"count":92,
			"type":"VEC3"
		},
		{
			"bufferView":22,
			"componentType":5126,
			"count":92,
			"type":"VEC2"
		},
		{
			"bufferView":23,
			"componentType":5123,
			"count":150,
			"type":"SCALAR"
		}
	],
	"bufferViews":[
		{
			"buffer":0,
			"byteLength":41028,
			"byteOffset":0,
			"target":34962
		},
		{
			"buffer":0,
			"byteLength":41028,
			"byteOffset":41028,
			"target":34962
		},
		{
			"buffer":0,
			"byteLength":27352,
			"byteOffset":82056,
			"target":34962
		},
		{
			"buffer":0,
			"byteLength":14916,
			"byteOffset":109408,
			"target":34963
		},
		{
			"buffer":0,
			"byteLength":10236,
			"byteOffset":124324
		},
		{
			"buffer":0,
			"byteLength":492,
			"byteOffset":134560,
			"target":34962
		},
		{
			"buffer":0,
			"byteLength":492,
			"byteOffset":135052,
			"target":34962
		},
		{
			"buffer":0,
			"byteLength":328,
			"byteOffset":135544,
			"target":34962
		},
		{
			"buffer":0,
			"byteLength":216,
			"byteOffset":135872,
			"target":34963
		},
		{
			"buffer":0,
			"byteLength":10338,
			"byteOffset":136088
		},
		{
			"buffer":0,
			"byteLength":660,
			"byteOffset":146428,
			"target":34962
		},
		{
			"buffer":0,
			"byteLength":660,
			"byteOffset":147088,
			"target":34962
		},
		{
			"buffer":0,
			"byteLength":440,
			"byteOffset":147748,
			"target":34962
		},
		{
			"buffer":0,
			"byteLength":288,
			"byteOffset":148188,
			"target":34963
		},
		{
			"buffer":0,
			"byteLength":6881,
			"byteOffset":148476
		},
		{
			"buffer":0,
			"byteLength":504,
			"byteOffset":155360,
			"target":34962
		},
		{
			"buffer":0,
			"byteLength":504,
			"byteOffset":155864,
			"target":34962
		},
		{
			"buffer":0,
			"byteLength":336,
			"byteOffset":156368,
			"target":34962
		},
		{
			"buffer":0,
			"byteLength":192,
			"byteOffset":156704,
			"target":34963
		},
		{
			"buffer":0,
			"byteLength":3300,
			"byteOffset":156896
		},
		{
			"buffer":0,
			"byteLength":1104,
			"byteOffset":160196,
			"target":34962
		},
		{
			"buffer":0,
			"byteLength":1104,
			"byteOffset":161300,
			"target":34962
		},
		{
			"buffer":0,
			"byteLength":736,
			"byteOffset":162404,
			"target":34962
		},
		{
			"buffer":0,
			"byteLength":300,
			"byteOffset":163140,
			"target":34963
		}
	],
	"samplers":[
		{
			"magFilter":9729,
			"minFilter":9987
		}
	],
	"buffers":[
		{
			"byteLength":163440,
			"uri":"data:application/octet-stream;base64,"
		}
	]
}
