{
	"asset":{
		"generator":"Khronos glTF Blender I/O v3.6.28",
		"version":"2.0"
	},
	"scene":0,
	"scenes":[
		{
			"name":"Scene",
			"nodes":[
				0
			]
		}
	],
	"nodes":[
		{
			"mesh":0,
			"name":"merged_0_0_node",
			"rotation":[
				0.7071068286895752,
				0,
				0,
				0.7071068286895752
			]
		}
	],
	"materials":[
		{
			"doubleSided":true,
			"name":"mat_body1_mat_id",
			"pbrMetallicRoughness":{
				"baseColorTexture":{
					"index":0
				},
				"metallicFactor":0,
				"roughnessFactor":0.7763931751251221
			}
		},
		{
			"doubleSided":true,
			"name":"mat_hire1_mat_id",
			"pbrMetallicRoughness":{
				"baseColorTexture":{
					"index":1
				},
				"metallicFactor":0,
				"roughnessFactor":0.7763931751251221
			}
		},
		{
			"doubleSided":true,
			"name":"TEX_ANIM_EYE_mat_id",
			"pbrMetallicRoughness":{
				"baseColorTexture":{
					"index":2
				},
				"metallicFactor":0,
				"roughnessFactor":0.7763931751251221
			}
		}
	],
	"meshes":[
		{
			"name":"merged_0_0_node",
			"primitives":[
				{
					"attributes":{
						"POSITION":0,
						"NORMAL":1,
						"TEXCOORD_0":2
					},
					"indices":3,
					"material":0
				},
				{
					"attributes":{
						"POSITION":4,
						"NORMAL":5,
						"TEXCOORD_0":6
					},
					"indices":7,
					"material":1
				},
				{
					"attributes":{
						"POSITION":8,
						"NORMAL":9,
						"TEXCOORD_0":10
					},
					"indices":11,
					"material":2
				}
			]
		}
	],
	"textures":[
		{
			"sampler":0,
			"source":0
		},
		{
			"sampler":0,
			"source":1
		},
		{
			"sampler":0,
			"source":2
		}
	],
	"images":[
		{
			"bufferView":4,
			"mimeType":"image/png",
			"name":"Pii_SYAWAAZU_body"
		},
		{
			"bufferView":9,
			"mimeType":"image/png",
			"name":"Pii_SYAWAAZU_hire"
		},
		{
			"bufferView":14,
			"mimeType":"image/png",
			"name":"Pii_SYAWAAZU_eye"
		}
	],
	"accessors":[
		{
			"bufferView":0,
			"componentType":5126,
			"count":250,
			"max":[
				0.41639599204063416,
				0.40607398748397827,
				-0.0005691268015652895
			],
			"min":[
				-0.41639599204063416,
				-0.5484979748725891,
				-0.8623009920120239
			],
			"type":"VEC3"
		},
		{
			"bufferView":1,
			"componentType":5126,
			"count":250,
			"type":"VEC3"
		},
		{
			"bufferView":2,
			"componentType":5126,
			"count":250,
			"type":"VEC2"
		},
		{
			"bufferView":3,
			"componentType":5123,
			"count":450,
			"type":"SCALAR"
		},
		{
			"bufferView":5,
			"componentType":5126,
			"count":34,
			"max":[
				0.3202880024909973,
				0.35860100388526917,
				-0.16387200355529785
			],
			"min":[
				-0.3202880024909973,
				-0.1622990071773529,
				-0.5367000102996826
			],
			"type":"VEC3"
		},
		{
			"bufferView":6,
			"componentType":5126,
			"count":34,
			"type":"VEC3"
		},
		{
			"bufferView":7,
			"componentType":5126,
			"count":34,
			"type":"VEC2"
		},
		{
			"bufferView":8,
			"componentType":5123,
			"count":48,
			"type":"SCALAR"
		},
		{
			"bufferView":10,
			"componentType":5126,
			"count":12,
			"max":[
				0.18240000307559967,
				0.3833340108394623,
				-0.35412800312042236
			],
			"min":[
				-0.18240000307559967,
				0.2842159867286682,
				-0.5173680186271667
			],
			"type":"VEC3"
		},
		{
			"bufferView":11,
			"componentType":5126,
			"count":12,
			"type":"VEC3"
		},
		{
			"bufferView":12,
			"componentType":5126,
			"count":12,
			"type":"VEC2"
		},
		{
			"bufferView":13,
			"componentType":5123,
			"count":18,
			"type":"SCALAR"
		}
	],
	"bufferViews":[
		{
			"buffer":0,
			"byteLength":3000,
			"byteOffset":0,
			"target":34962
		},
		{
			"buffer":0,
			"byteLength":3000,
			"byteOffset":3000,
			"target":34962
		},
		{
			"buffer":0,
			"byteLength":2000,
			"byteOffset":6000,
			"target":34962
		},
		{
			"buffer":0,
			"byteLength":900,
			"byteOffset":8000,
			"target":34963
		},
		{
			"buffer":0,
			"byteLength":2209,
			"byteOffset":8900
		},
		{
			"buffer":0,
			"byteLength":408,
			"byteOffset":11112,
			"target":34962
		},
		{
			"buffer":0,
			"byteLength":408,
			"byteOffset":11520,
			"target":34962
		},
		{
			"buffer":0,
			"byteLength":272,
			"byteOffset":11928,
			"target":34962
		},
		{
			"buffer":0,
			"byteLength":96,
			"byteOffset":12200,
			"target":34963
		},
		{
			"buffer":0,
			"byteLength":422,
			"byteOffset":12296
		},
		{
			"buffer":0,
			"byteLength":144,
			"byteOffset":12720,
			"target":34962
		},
		{
			"buffer":0,
			"byteLength":144,
			"byteOffset":12864,
			"target":34962
		},
		{
			"buffer":0,
			"byteLength":96,
			"byteOffset":13008,
			"target":34962
		},
		{
			"buffer":0,
			"byteLength":36,
			"byteOffset":13104,
			"target":34963
		},
		{
			"buffer":0,
			"byteLength":1553,
			"byteOffset":13140
		}
	],
	"samplers":[
		{
			"magFilter":9729,
			"minFilter":9987
		}
	],
	"buffers":[
		{
			"byteLength":14696,
			"uri":"data:application/octet-stream;base64,"
		}
	]
}
