{
	"asset":{
		"generator":"Khronos glTF Blender I/O v3.6.28",
		"version":"2.0"
	},
	"extensionsUsed":[
		"KHR_materials_specular",
		"KHR_materials_ior"
	],
	"scene":0,
	"scenes":[
		{
			"name":"Scene",
			"nodes":[
				0
			]
		}
	],
	"nodes":[
		{
			"mesh":0,
			"name":"skin_1",
			"rotation":[
				0.7071068286895752,
				0,
				0,
				0.7071068286895752
			]
		}
	],
	"materials":[
		{
			"doubleSided":true,
			"extensions":{
				"KHR_materials_specular":{
					"specularColorFactor":[
						0.6416615045689265,
						0.6416615045689265,
						0.6416615045689265
					]
				},
				"KHR_materials_ior":{
					"ior":1.4500000476837158
				}
			},
			"name":"fushigidane1:fushigidane_m02_mat1147",
			"pbrMetallicRoughness":{
				"baseColorTexture":{
					"index":0
				},
				"metallicFactor":0,
				"roughnessFactor":0.7763931751251221
			}
		},
		{
			"doubleSided":true,
			"extensions":{
				"KHR_materials_specular":{
					"specularColorFactor":[
						0.6416615045689265,
						0.6416615045689265,
						0.6416615045689265
					]
				},
				"KHR_materials_ior":{
					"ior":1.4500000476837158
				}
			},
			"name":"fushigidane1:fushigidane_m02_fushigidane_m01_mat1143",
			"pbrMetallicRoughness":{
				"baseColorTexture":{
					"index":1
				},
				"metallicFactor":0,
				"roughnessFactor":0.7763931751251221
			}
		}
	],
	"meshes":[
		{
			"name":"skin_1",
			"primitives":[
				{
					"attributes":{
						"POSITION":0,
						"NORMAL":1,
						"TEXCOORD_0":2
					},
					"indices":3,
					"material":0
				},
				{
					"attributes":{
						"POSITION":4,
						"NORMAL":5,
						"TEXCOORD_0":6
					},
					"indices":7,
					"material":1
				}
			]
		}
	],
	"textures":[
		{
			"sampler":0,
			"source":0
		},
		{
			"sampler":0,
			"source":1
		}
	],
	"images":[
		{
			"bufferView":4,
			"mimeType":"image/png",
			"name":"Texture_1_CMP.png"
		},
		{
			"bufferView":9,
			"mimeType":"image/png",
			"name":"Texture_0_RGB565"
		}
	],
	"accessors":[
		{
			"bufferView":0,
			"componentType":5126,
			"count":929,
			"max":[
				0.3415506184101105,
				0.5063889026641846,
				0.006420475896447897
			],
			"min":[
				-0.3397987186908722,
				-0.3742946684360504,
				-0.7330175638198853
			],
			"type":"VEC3"
		},
		{
			"bufferView":1,
			"componentType":5126,
			"count":929,
			"type":"VEC3"
		},
		{
			"bufferView":2,
			"componentType":5126,
			"count":929,
			"type":"VEC2"
		},
		{
			"bufferView":3,
			"componentType":5123,
			"count":1920,
			"type":"SCALAR"
		},
		{
			"bufferView":5,
			"componentType":5126,
			"count":23,
			"max":[
				0.22337499260902405,
				0.47818875312805176,
				-0.24407759308815002
			],
			"min":[
				-0.22337499260902405,
				0.3173634707927704,
				-0.44467785954475403
			],
			"type":"VEC3"
		},
		{
			"bufferView":6,
			"componentType":5126,
			"count":23,
			"type":"VEC3"
		},
		{
			"bufferView":7,
			"componentType":5126,
			"count":23,
			"type":"VEC2"
		},
		{
			"bufferView":8,
			"componentType":5123,
			"count":36,
			"type":"SCALAR"
		}
	],
	"bufferViews":[
		{
			"buffer":0,
			"byteLength":11148,
			"byteOffset":0,
			"target":34962
		},
		{
			"buffer":0,
			"byteLength":11148,
			"byteOffset":11148,
			"target":34962
		},
		{
			"buffer":0,
			"byteLength":7432,
			"byteOffset":22296,
			"target":34962
		},
		{
			"buffer":0,
			"byteLength":3840,
			"byteOffset":29728,
			"target":34963
		},
		{
			"buffer":0,
			"byteLength":83019,
			"byteOffset":33568
		},
		{
			"buffer":0,
			"byteLength":276,
			"byteOffset":116588,
			"target":34962
		},
		{
			"buffer":0,
			"byteLength":276,
			"byteOffset":116864,
			"target":34962
		},
		{
			"buffer":0,
			"byteLength":184,
			"byteOffset":117140,
			"target":34962
		},
		{
			"buffer":0,
			"byteLength":72,
			"byteOffset":117324,
			"target":34963
		},
		{
			"buffer":0,
			"byteLength":11459,
			"byteOffset":117396
		}
	],
	"samplers":[
		{
			"magFilter":9729,
			"minFilter":9987
		}
	],
	"buffers":[
		{
			"byteLength":128856,
			"uri":"data:application/octet-stream;base64,"
		}
	]
}
