{
	"asset":{
		"generator":"Khronos glTF Blender I/O v3.6.28",
		"version":"2.0"
	},
	"extensionsUsed":[
		"KHR_materials_specular",
		"KHR_materials_ior"
	],
	"scene":0,
	"scenes":[
		{
			"name":"Scene",
			"nodes":[
				0
			]
		}
	],
	"nodes":[
		{
			"mesh":0,
			"name":"skin2800_0",
			"rotation":[
				0.7071068286895752,
				0,
				0,
				0.7071068286895752
			]
		}
	],
	"materials":[
		{
			"doubleSided":true,
			"extensions":{
				"KHR_materials_specular":{
					"specularColorFactor":[
						0.6416615045689265,
						0.6416615045689265,
						0.6416615045689265
					]
				},
				"KHR_materials_ior":{
					"ior":1.4500000476837158
				}
			},
			"name":"pika_body",
			"pbrMetallicRoughness":{
				"baseColorTexture":{
					"index":0
				},
				"metallicFactor":0,
				"roughnessFactor":0.8585786819458008
			}
		},
		{
			"doubleSided":true,
			"extensions":{
				"KHR_materials_specular":{
					"specularColorFactor":[
						0.6416615045689265,
						0.6416615045689265,
						0.6416615045689265
					]
				},
				"KHR_materials_ior":{
					"ior":1.4500000476837158
				}
			},
			"name":"pika_eye",
			"pbrMetallicRoughness":{
				"baseColorTexture":{
					"index":1
				},
				"metallicFactor":0,
				"roughnessFactor":0.8585786819458008
			}
		},
		{
			"doubleSided":true,
			"extensions":{
				"KHR_materials_specular":{
					"specularColorFactor":[
						0.6416615045689265,
						0.6416615045689265,
						0.6416615045689265
					]
				},
				"KHR_materials_ior":{
					"ior":1.4500000476837158
				}
			},
			"name":"pika_kuti",
			"pbrMetallicRoughness":{
				"baseColorTexture":{
					"index":2
				},
				"metallicFactor":0,
				"roughnessFactor":0.8585786819458008
			}
		},
		{
			"doubleSided":true,
			"extensions":{
				"KHR_materials_specular":{
					"specularColorFactor":[
						0.6416615045689265,
						0.6416615045689265,
						0.6416615045689265
					]
				},
				"KHR_materials_ior":{
					"ior":1.4500000476837158
				}
			},
			"name":"pika_hoho",
			"pbrMetallicRoughness":{
				"baseColorTexture":{
					"index":3
				},
				"metallicFactor":0,
				"roughnessFactor":0.8585786819458008
			}
		},
		{
			"doubleSided":true,
			"extensions":{
				"KHR_materials_specular":{
					"specularColorFactor":[
						0.6416615045689265,
						0.6416615045689265,
						0.6416615045689265
					]
				},
				"KHR_materials_ior":{
					"ior":1.4500000476837158
				}
			},
			"name":"pika_body0",
			"pbrMetallicRoughness":{
				"baseColorTexture":{
					"index":4
				},
				"metallicFactor":0,
				"roughnessFactor":0.8585786819458008
			}
		}
	],
	"meshes":[
		{
			"name":"skin2800_0",
			"primitives":[
				{
					"attributes":{
						"POSITION":0,
						"NORMAL":1,
						"TEXCOORD_0":2
					},
					"indices":3,
					"material":0
				},
				{
					"attributes":{
						"POSITION":4,
						"NORMAL":5,
						"TEXCOORD_0":6
					},
					"indices":7,
					"material":1
				},
				{
					"attributes":{
						"POSITION":8,
						"NORMAL":9,
						"TEXCOORD_0":10
					},
					"indices":11,
					"material":2
				},
				{
					"attributes":{
						"POSITION":12,
						"NORMAL":13,
						"TEXCOORD_0":14
					},
					"indices":15,
					"material":3
				},
				{
					"attributes":{
						"POSITION":16,
						"NORMAL":17,
						"TEXCOORD_0":18
					},
					"indices":19,
					"material":4
				}
			]
		}
	],
	"textures":[
		{
			"sampler":0,
			"source":0
		},
		{
			"sampler":0,
			"source":1
		},
		{
			"sampler":0,
			"source":2
		},
		{
			"sampler":0,
			"source":3
		},
		{
			"sampler":0,
			"source":0
		}
	],
	"images":[
		{
			"bufferView":4,
			"mimeType":"image/png",
			"name":"Texture_1_CMP"
		},
		{
			"bufferView":9,
			"mimeType":"image/png",
			"name":"Texture_2_CMP"
		},
		{
			"bufferView":14,
			"mimeType":"image/png",
			"name":"Texture_3_CMP"
		},
		{
			"bufferView":19,
			"mimeType":"image/png",
			"name":"Texture_4_CMP"
		}
	],
	"accessors":[
		{
			"bufferView":0,
			"componentType":5126,
			"count":3435,
			"max":[
				0.3476176857948303,
				0.28547409176826477,
				1.1199916116311215e-05
			],
			"min":[
				-0.3476172685623169,
				-0.32608145475387573,
				-0.9181932806968689
			],
			"type":"VEC3"
		},
		{
			"bufferView":1,
			"componentType":5126,
			"count":3435,
			"type":"VEC3"
		},
		{
			"bufferView":2,
			"componentType":5126,
			"count":3435,
			"type":"VEC2"
		},
		{
			"bufferView":3,
			"componentType":5123,
			"count":7458,
			"type":"SCALAR"
		},
		{
			"bufferView":5,
			"componentType":5126,
			"count":40,
			"max":[
				0.16049964725971222,
				0.264753133058548,
				-0.5492483973503113
			],
			"min":[
				-0.16050425171852112,
				0.18820533156394958,
				-0.6479817032814026
			],
			"type":"VEC3"
		},
		{
			"bufferView":6,
			"componentType":5126,
			"count":40,
			"type":"VEC3"
		},
		{
			"bufferView":7,
			"componentType":5126,
			"count":40,
			"type":"VEC2"
		},
		{
			"bufferView":8,
			"componentType":5123,
			"count":108,
			"type":"SCALAR"
		},
		{
			"bufferView":10,
			"componentType":5126,
			"count":52,
			"max":[
				0.07153409719467163,
				0.2908063232898712,
				-0.4527592658996582
			],
			"min":[
				-0.07153386622667313,
				0.24323081970214844,
				-0.5770440697669983
			],
			"type":"VEC3"
		},
		{
			"bufferView":11,
			"componentType":5126,
			"count":52,
			"type":"VEC3"
		},
		{
			"bufferView":12,
			"componentType":5126,
			"count":52,
			"type":"VEC2"
		},
		{
			"bufferView":13,
			"componentType":5123,
			"count":144,
			"type":"SCALAR"
		},
		{
			"bufferView":15,
			"componentType":5126,
			"count":42,
			"max":[
				0.19581322371959686,
				0.22574664652347565,
				-0.4617040157318115
			],
			"min":[
				-0.19576230645179749,
				0.13463430106639862,
				-0.5784606337547302
			],
			"type":"VEC3"
		},
		{
			"bufferView":16,
			"componentType":5126,
			"count":42,
			"type":"VEC3"
		},
		{
			"bufferView":17,
			"componentType":5126,
			"count":42,
			"type":"VEC2"
		},
		{
			"bufferView":18,
			"componentType":5123,
			"count":96,
			"type":"SCALAR"
		},
		{
			"bufferView":20,
			"componentType":5126,
			"count":92,
			"max":[
				0.010370198637247086,
				-0.25105080008506775,
				-0.11823339015245438
			],
			"min":[
				-0.010370655916631222,
				-0.8116611838340759,
				-0.9011242985725403
			],
			"type":"VEC3"
		},
		{
			"bufferView":21,
			"componentType":5126,
			"count":92,
			"type":"VEC3"
		},
		{
			"bufferView":22,
			"componentType":5126,
			"count":92,
			"type":"VEC2"
		},
		{
			"bufferView":23,
			"componentType":5123,
			"count":150,
			"type":"SCALAR"
		}
	],
	"bufferViews":[
		{
			"buffer":0,
			"byteLength":41220,
			"byteOffset":0,
			"target":34962
		},
		{
			"buffer":0,
			"byteLength":41220,
			"byteOffset":41220,
			"target":34962
		},
		{
			"buffer":0,
			"byteLength":27480,
			"byteOffset":82440,
			"target":34962
		},
		{
			"buffer":0,
			"byteLength":14916,
			"byteOffset":109920,
			"target":34963
		},
		{
			"buffer":0,
			"byteLength":10236,
			"byteOffset":124836
		},
		{
			"buffer":0,
			"byteLength":480,
			"byteOffset":135072,
			"target":34962
		},
		{
			"buffer":0,
			"byteLength":480,
			"byteOffset":135552,
			"target":34962
		},
		{
			"buffer":0,
			"byteLength":320,
			"byteOffset":136032,
			"target":34962
		},
		{
			"buffer":0,
			"byteLength":216,
			"byteOffset":136352,
			"target":34963
		},
		{
			"buffer":0,
			"byteLength":10338,
			"byteOffset":136568
		},
		{
			"buffer":0,
			"byteLength":624,
			"byteOffset":146908,
			"target":34962
		},
		{
			"buffer":0,
			"byteLength":624,
			"byteOffset":147532,
			"target":34962
		},
		{
			"buffer":0,
			"byteLength":416,
			"byteOffset":148156,
			"target":34962
		},
		{
			"buffer":0,
			"byteLength":288,
			"byteOffset":148572,
			"target":34963
		},
		{
			"buffer":0,
			"byteLength":6881,
			"byteOffset":148860
		},
		{
			"buffer":0,
			"byteLength":504,
			"byteOffset":155744,
			"target":34962
		},
		{
			"buffer":0,
			"byteLength":504,
			"byteOffset":156248,
			"target":34962
		},
		{
			"buffer":0,
			"byteLength":336,
			"byteOffset":156752,
			"target":34962
		},
		{
			"buffer":0,
			"byteLength":192,
			"byteOffset":157088,
			"target":34963
		},
		{
			"buffer":0,
			"byteLength":3300,
			"byteOffset":157280
		},
		{
			"buffer":0,
			"byteLength":1104,
			"byteOffset":160580,
			"target":34962
		},
		{
			"buffer":0,
			"byteLength":1104,
			"byteOffset":161684,
			"target":34962
		},
		{
			"buffer":0,
			"byteLength":736,
			"byteOffset":162788,
			"target":34962
		},
		{
			"buffer":0,
			"byteLength":300,
			"byteOffset":163524,
			"target":34963
		}
	],
	"samplers":[
		{
			"magFilter":9729,
			"minFilter":9987
		}
	],
	"buffers":[
		{
			"byteLength":163824,
			"uri":"data:application/octet-stream;base64,"
		}
	]
}
